<svg xmlns="http://www.w3.org/2000/svg" version="1.1" xmlns:xlink="http://www.w3.org/1999/xlink" xmlns:svgjs="http://svgjs.dev/svgjs" width="1000" height="623" viewBox="0 0 1000 623"><g transform="matrix(1,0,0,1,-0.6060606060606233,0.2522267206477409)"><svg viewBox="0 0 396 247" data-background-color="#ffffff" preserveAspectRatio="xMidYMid meet" height="623" width="1000" xmlns="http://www.w3.org/2000/svg" xmlns:xlink="http://www.w3.org/1999/xlink"><g id="tight-bounds" transform="matrix(1,0,0,1,0.2400000000000091,-0.09999999999999432)"><svg viewBox="0 0 395.52 247.2" height="247.2" width="395.52"><g><svg></svg></g><g><svg viewBox="0 0 395.52 247.2" height="247.2" width="395.52"><mask id="f80ad609-6ac4-4cbe-8b39-a2c1e5a76eaf"><rect width="640" height="400" fill="white"></rect><g transform="matrix(1,0,0,1,123.45304627249358,37.08)"><svg viewBox="0 0 148.61390745501282 173.04" height="173.04" width="148.61390745501282"><g><svg viewBox="0 0 148.61390745501282 173.04" height="173.04" width="148.61390745501282"><g><svg viewBox="0 0 148.61390745501285 173.04000000000002" height="173.04" width="148.61390745501282"><g><svg viewBox="0 0 148.61390745501285 173.04000000000002" height="173.04000000000002" width="148.61390745501285"><g id="SvgjsG1202"><svg viewBox="0 0 148.61390745501285 173.04000000000002" height="173.04000000000002" width="148.61390745501285" id="SvgjsSvg1201"><g><svg viewBox="0 0 148.61390745501285 173.04000000000002" height="173.04000000000002" width="148.61390745501285"><g transform="matrix(1,0,0,1,0,0)"><svg width="148.61390745501285" viewBox="-1.6600000858306885 -39.54999923706055 37.53999900817871 43.54999923706055" height="173.04000000000002" data-palette-color="#ca3433"><path d="M23.51 0L10.74 0 10.74-3.08 14.72-3.76 14.72-31.91 6.67-31.91 5.96-26.98 2.34-26.98 2.34-35.55 31.88-35.55 31.88-26.98 28.32-26.98 27.59-31.91 19.53-31.91 19.53-3.76 23.51-3.08 23.51 0Z" opacity="1" transform="matrix(1,0,0,1,0,0)" fill="black" class="wordmark-text-0" id="SvgjsPath1200" stroke-width="7" stroke="black" stroke-linejoin="round"></path></svg></g></svg></g></svg></g></svg></g></svg></g></svg></g></svg></g></mask><g transform="matrix(1,0,0,1,123.45304627249358,37.08)"><svg viewBox="0 0 148.61390745501282 173.04" height="173.04" width="148.61390745501282"><g><svg viewBox="0 0 148.61390745501282 173.04" height="173.04" width="148.61390745501282"><g><svg viewBox="0 0 148.61390745501285 173.04000000000002" height="173.04" width="148.61390745501282"><g><svg viewBox="0 0 148.61390745501285 173.04000000000002" height="173.04000000000002" width="148.61390745501285"><g id="textblocktransform"><svg viewBox="0 0 148.61390745501285 173.04000000000002" height="173.04000000000002" width="148.61390745501285" id="textblock"><g><svg viewBox="0 0 148.61390745501285 173.04000000000002" height="173.04000000000002" width="148.61390745501285"><g transform="matrix(1,0,0,1,0,0)"><svg width="148.61390745501285" viewBox="-1.6600000858306885 -39.54999923706055 37.53999900817871 43.54999923706055" height="173.04000000000002" data-palette-color="#ca3433"><path d="M23.51 0L10.74 0 10.74-3.08 14.72-3.76 14.72-31.91 6.67-31.91 5.96-26.98 2.34-26.98 2.34-35.55 31.88-35.55 31.88-26.98 28.32-26.98 27.59-31.91 19.53-31.91 19.53-3.76 23.51-3.08 23.51 0Z" opacity="1" transform="matrix(1,0,0,1,0,0)" fill="#ca3433" class="wordmark-text-0" data-fill-palette-color="primary" id="text-0"></path></svg></g></svg></g></svg></g></svg></g></svg></g></svg></g></svg></g><g mask="url(#f80ad609-6ac4-4cbe-8b39-a2c1e5a76eaf)"><g transform="matrix(3.243385981533637, 0, 0, 3.243385981533637, 91.70128830187856, 1.0000000000000142)"><svg xmlns="http://www.w3.org/2000/svg" xmlns:xlink="http://www.w3.org/1999/xlink" version="1.1" x="0" y="0" viewBox="17.299999237060547 12.199999809265137 65.39999389648438 75.60000610351562" style="enable-background:new 0 0 100 100;" xml:space="preserve" height="75.60000610351562" width="65.39999389648438" class="icon-none" data-fill-palette-color="accent" id="none"><path d="M50 12.2L17.3 31.1v37.8L50 87.8l32.7-18.9V31.1L50 12.2zM32.1 37.4L50 16l17 21.4H32.1zM67.3 39.4L50 70.4l-18.2-31H67.3zM48.1 71l-27.7-4.5 9.8-25.9L48.1 71zM68.9 40.7l10.7 25.9-27.7 4.5L68.9 40.7zM69.2 37.1L52.6 16l27 15.6L69.2 37.1zM29.8 37.1l-9.4-5.5 26.8-15.5L29.8 37.1zM28.8 38.8l-9.5 25V33.3L28.8 38.8zM49 73.2v11.7L20.9 68.7 49 73.2zM51 73.2l28.1-4.5L51 84.9V73.2zM70.3 38.8l10.5-5.6v30.9L70.3 38.8z" fill="#ca3433" data-fill-palette-color="accent"></path></svg></g></g></svg></g><defs></defs></svg><rect width="395.52" height="247.2" fill="none" stroke="none" visibility="hidden"></rect></g></svg></g></svg>